<svg xmlns="http://www.w3.org/2000/svg" viewBox="0 0 256 256" role="img" aria-labelledby="title desc">
  <title id="title">Cashflow icon</title>
  <desc id="desc">Premium SVG icon for cash balance, income, cost, and liquidity decisions.</desc>
  <defs>
    <linearGradient id="bcf_bg" x1="27" y1="27" x2="228" y2="229" gradientUnits="userSpaceOnUse">
      <stop stop-color="#22312f"/>
      <stop offset="1" stop-color="#090d0c"/>
    </linearGradient>
    <linearGradient id="bcf_gold" x1="66" y1="68" x2="193" y2="185" gradientUnits="userSpaceOnUse">
      <stop stop-color="#fff0a8"/>
      <stop offset="1" stop-color="#d4a853"/>
    </linearGradient>
    <filter id="bcf_shadow" x="8" y="8" width="240" height="240" color-interpolation-filters="sRGB">
      <feDropShadow dx="0" dy="14" stdDeviation="12" flood-color="#000000" flood-opacity="0.32"/>
    </filter>
  </defs>
  <rect x="18" y="18" width="220" height="220" rx="44" fill="url(#bcf_bg)" filter="url(#bcf_shadow)"/>
  <path d="M65 103h109c13 0 23 10 23 23v50c0 13-10 23-23 23H65c-13 0-23-10-23-23v-50c0-13 10-23 23-23z" fill="#151d27" stroke="#2dd4a0" stroke-width="8"/>
  <path d="M70 103l30-38h82c9 0 16 7 16 16v42" fill="#101820" stroke="#d4a853" stroke-width="8" stroke-linejoin="round"/>
  <circle cx="160" cy="151" r="21" fill="url(#bcf_gold)"/>
  <path d="M86 151h42" stroke="#ffffff" stroke-width="8" stroke-linecap="round" stroke-opacity="0.42"/>
  <path d="M82 72c19-17 47-18 68-3M174 184c-21 18-50 18-72 1" fill="none" stroke="#60a5fa" stroke-width="8" stroke-linecap="round"/>
  <path d="M145 56l12 16-19 7M111 199l-17-13 16-12" fill="none" stroke="#60a5fa" stroke-width="7" stroke-linecap="round" stroke-linejoin="round"/>
</svg>
